<svg xmlns="http://www.w3.org/2000/svg"  fill="#a73358"  viewBox="0 0 48 48" id="graduation-cap"><path d="M45.9 16.9c0 .2-.1.8-.7 1.1l-21.8 8.3c-.3.1-.6.1-.8 0L.8 18C.1 17.7 0 17.1 0 16.9c0-.2.1-.8.8-1.1l21.8-8.3c.1-.1.3-.1.4-.1.1 0 .3 0 .4.1l21.8 8.3C45.9 16.1 45.9 16.7 45.9 16.9zM48 30.5v2.5c0 .6-.5 1-1 1-.6 0-1-.5-1-1v-2.5c0-.6.5-1 1-1C47.5 29.4 48 29.9 48 30.5z"></path><path d="M24.1 28.3l15.4-5.9v13.4c0 2.7-7.3 4.8-16.6 4.8-9.3 0-16.6-2.1-16.6-4.8V22.4l15.4 5.9C22.5 28.6 23.4 28.6 24.1 28.3zM48 16.9v9.1c0 .6-.5 1-1 1-.6 0-1-.5-1-1V20h0C47.2 19.5 48 18.3 48 16.9z"></path></svg>