<svg xmlns="http://www.w3.org/2000/svg" viewBox="0 0 64 64" id="manager"><path fill="#fcd192" d="M34 30h12v10H34z"></path><path fill="#aadff1" d="M42 30v6l-2-2-2 2v-6"></path><path fill="#ef9596" d="M18 30h12v10H18z"></path><path fill="#aadff1" d="M26 30v6l-2-2-2 2v-6"></path><path fill="#fcd192" d="M10 40h12v10H10z"></path><path fill="#aadff1" d="M18 40v6l-2-2-2 2v-6"></path><path fill="#ef9596" d="M26 40h12v10H26z"></path><path fill="#aadff1" d="M34 40v6l-2-2-2 2v-6"></path><path fill="#fcd192" d="M42 40h12v10H42z"></path><path fill="#aadff1" d="M50 40v6l-2-2-2 2v-6"></path><path fill="#fcd192" d="M50 50h12v10H50z"></path><path fill="#aadff1" d="M58 50v6l-2-2-2 2v-6"></path><path fill="#ef9596" d="M34 50h12v10H34z"></path><path fill="#aadff1" d="M42 50v6l-2-2-2 2v-6"></path><path fill="#fcd192" d="M18 50h12v10H18z"></path><path fill="#aadff1" d="M26 50v6l-2-2-2 2v-6"></path><path fill="#ef9596" d="M2 50h12v10H2z"></path><path fill="#aadff1" d="M10 50v6l-2-2-2 2v-6"></path><circle cx="32" cy="9" r="5" fill="#a3aab1"></circle><path fill="#a3aab1" d="M35 28h5v-9c0-2.21-1.79-4-4-4h-8c-2.21 0-4 1.79-4 4v9h5"></path><path fill="#ef9596" d="m34 21-2 2-2-2 2-6 2 6z"></path><path fill="#d6eff8" d="M52.92 13.11c-3.3.76-4.05 1.51-4.81 4.81-.03.11-.18.11-.21 0-.76-3.3-1.51-4.05-4.81-4.81a.108.108 0 0 1 0-.21c3.3-.76 4.05-1.51 4.81-4.81.03-.11.18-.11.21 0 .76 3.3 1.51 4.05 4.81 4.81.11.03.11.18 0 .21zm-32 0c-3.3.76-4.05 1.51-4.81 4.81-.03.11-.18.11-.21 0-.76-3.3-1.51-4.05-4.81-4.81a.108.108 0 0 1 0-.21c3.3-.76 4.05-1.51 4.81-4.81.03-.11.18-.11.21 0 .76 3.3 1.51 4.05 4.81 4.81.11.03.11.18 0 .21z"></path><rect width="2" height="2" x="31" y="26" fill="#75777a" rx="1" ry="1"></rect></svg>