<svg width="32" height="32" viewBox="0 0 32 32" fill="none" xmlns="http://www.w3.org/2000/svg">
<path d="M16 0C12.8355 0 9.74207 0.938383 7.11088 2.69649C4.4797 4.45459 2.42894 6.95345 1.21793 9.87706C0.00693244 12.8007 -0.309921 16.0177 0.307443 19.1214C0.924806 22.2251 2.44866 25.0761 4.6863 27.3137C6.92394 29.5513 9.77486 31.0752 12.8786 31.6926C15.9823 32.3099 19.1993 31.9931 22.1229 30.7821C25.0466 29.5711 27.5454 27.5203 29.3035 24.8891C31.0616 22.2579 32 19.1645 32 16C31.9955 11.7579 30.3084 7.69085 27.3088 4.69124C24.3092 1.69163 20.2421 0.00447972 16 0ZM16 29.5385C13.3223 29.5385 10.7048 28.7444 8.47844 27.2568C6.25205 25.7692 4.51679 23.6548 3.4921 21.1809C2.4674 18.7071 2.1993 15.985 2.72168 13.3588C3.24407 10.7326 4.53348 8.32025 6.42687 6.42686C8.32026 4.53347 10.7326 3.24406 13.3588 2.72168C15.985 2.19929 18.7071 2.4674 21.1809 3.49209C23.6548 4.51679 25.7692 6.25204 27.2568 8.47843C28.7444 10.7048 29.5385 13.3223 29.5385 16C29.5344 19.5894 28.1067 23.0306 25.5686 25.5686C23.0306 28.1067 19.5894 29.5344 16 29.5385ZM14.7692 17.2308V8.61538C14.7692 8.28896 14.8989 7.97591 15.1297 7.7451C15.3605 7.51428 15.6736 7.38461 16 7.38461C16.3264 7.38461 16.6395 7.51428 16.8703 7.7451C17.1011 7.97591 17.2308 8.28896 17.2308 8.61538V17.2308C17.2308 17.5572 17.1011 17.8702 16.8703 18.1011C16.6395 18.3319 16.3264 18.4615 16 18.4615C15.6736 18.4615 15.3605 18.3319 15.1297 18.1011C14.8989 17.8702 14.7692 17.5572 14.7692 17.2308ZM17.8462 22.7692C17.8462 23.1344 17.7379 23.4913 17.535 23.7949C17.3322 24.0985 17.0438 24.3351 16.7065 24.4748C16.3692 24.6146 15.998 24.6511 15.6398 24.5799C15.2817 24.5087 14.9528 24.3328 14.6946 24.0747C14.4364 23.8165 14.2606 23.4875 14.1893 23.1294C14.1181 22.7713 14.1546 22.4001 14.2944 22.0627C14.4341 21.7254 14.6707 21.4371 14.9743 21.2342C15.2779 21.0313 15.6349 20.9231 16 20.9231C16.4896 20.9231 16.9592 21.1176 17.3054 21.4638C17.6517 21.81 17.8462 22.2796 17.8462 22.7692Z" fill="url(#paint0_linear_48_61)"/>
<defs>
<linearGradient id="paint0_linear_48_61" x1="16" y1="0" x2="16" y2="32" gradientUnits="userSpaceOnUse">
<stop stop-color="#E74141"/>
<stop offset="1" stop-color="#DA6700"/>
</linearGradient>
</defs>
</svg>
