<svg xmlns="http://www.w3.org/2000/svg" enable-background="new 0 0 128 128" viewBox="0 0 128 128" id="mic"><path fill="#a73358" d="M104.8,42.1c-0.9-0.9-2.1-1.4-3.4-1.4c-2.6,0-4.8,2.2-4.8,4.8v18c0,18-14.6,32.6-32.6,32.6
				S31.4,81.5,31.4,63.5v-18c0-2.6-2.2-4.8-4.8-4.8s-4.8,2.2-4.8,4.8v18c0,10.7,4,20.9,11.4,28.8c6.9,7.4,16.1,12,26,13.1v11.3h-13
				c-2.6,0-4.8,2.2-4.8,4.8c0,2.6,2.2,4.8,4.8,4.8h35.5c2.6,0,4.8-2.2,4.8-4.8c0-2.6-2.2-4.8-4.8-4.8h-13v-11.3
				c9.9-1.1,19.1-5.7,26-13.1c7.3-7.8,11.4-18.1,11.4-28.8v-18C106.2,44.2,105.7,43,104.8,42.1z"></path><path fill="#a73358" d="M62.1,89.3h3.8c13.2,0,23.9-10.7,23.9-23.9V25.6c0-13.2-10.7-23.9-23.9-23.9h-3.8
			c-13.2,0-23.9,10.7-23.9,23.9v39.8C38.2,78.6,48.9,89.3,62.1,89.3z M53.7,23.1h20.6c2.1,0,3.8,1.7,3.8,3.8s-1.7,3.8-3.8,3.8H53.7
			c-2.1,0-3.8-1.7-3.8-3.8S51.6,23.1,53.7,23.1z M53.7,41.7h20.6c2.1,0,3.8,1.7,3.8,3.8s-1.7,3.8-3.8,3.8H53.7
			c-2.1,0-3.8-1.7-3.8-3.8S51.6,41.7,53.7,41.7z M53.7,60.3h20.6c2.1,0,3.8,1.7,3.8,3.8s-1.7,3.8-3.8,3.8H53.7
			c-2.1,0-3.8-1.7-3.8-3.8S51.6,60.3,53.7,60.3z"></path></svg>