<svg xmlns="
http://www.w3.org/2000/svg"
viewBox="0 0 64 64" id="employee-improvement"><path fill="none" stroke="#000" stroke-linecap="round" stroke-linejoin="round" d="M43,24.89a6.36,6.36,0,0,1,1.2,3.8v9c0,4.9-4.3,8.87-9.61,8.87h-.1c-5.31,0-9.61-4-9.61-8.87V27.42c.11-2.55,1.24-4.15,3.6-4.59a2,2,0,0,0,.89-.44C33.58,18.61,40.17,21.11,43,24.89Z"></path><path fill="none" stroke="#000" stroke-linecap="round" stroke-linejoin="round" d="M24.87 38.5a3 3 0 01-2.57-3v-1a.6.6 0 01.6-.61h2a2.55 2.55 0 001.78-.74 2.51 2.51 0 00.73-1.78 2.94 2.94 0 012.94-2.94h3.46a3.36 3.36 0 012.35 1 24.53 24.53 0 004.6 3.62 3.33 3.33 0 001.67.43h1.71M44.16 34h1.49a.93.93 0 01.94.95v1.23a2.36 2.36 0 01-2.36 2.36h-.12M28.45 44.58l-3 2.35A11.14 11.14 0 0017.92 52a7.52 7.52 0 00-1.13 4.06V63.5h35.3M40.43 44.58l3 2.35A11.14 11.14 0 0151 52a7.6 7.6 0 011.12 4.06V63.5"></path><polyline fill="none" stroke="#000" stroke-linecap="round" stroke-linejoin="round" points="25.46 46.93 30.03 50.95 34.54 46.51"></polyline><polyline fill="none" stroke="#000" stroke-linecap="round" stroke-linejoin="round" points="43.62 46.93 39.05 50.95 34.54 46.51"></polyline><polyline fill="none" stroke="#000" stroke-linecap="round" stroke-linejoin="round" points="31.89 63.5 30 60.3 32.76 51.99 31.86 49.15"></polyline><polyline fill="none" stroke="#000" stroke-linecap="round" stroke-linejoin="round" points="32.76 51.99 36.39 51.99 37.21 49.15"></polyline><polyline fill="none" stroke="#000" stroke-linecap="round" stroke-linejoin="round" points="36.39 51.99 38.73 60.28 37.04 63.5"></polyline><line x1="22.97" x2="22.97" y1="63.5" y2="58.38" fill="none" stroke="#000" stroke-linecap="round" stroke-linejoin="round"></line><line x1="46.11" x2="46.11" y1="63.5" y2="58.38" fill="none" stroke="#000" stroke-linecap="round" stroke-linejoin="round"></line><path fill="none" stroke="#000" stroke-linecap="round" stroke-linejoin="round" d="M18.6 18.34V23a.32.32 0 01-.32.32H14.8a.31.31 0 01-.31-.32V18.34H12.24a.33.33 0 01-.27-.52l4.45-6.38 4.4 6.33a.33.33 0 01-.26.52zM30.25 12.7v4.69a.31.31 0 01-.31.32H26.46a.32.32 0 01-.32-.32V12.7H23.9a.33.33 0 01-.28-.52L28.08 5.8l4.4 6.32a.33.33 0 01-.26.52zM41.33 7.4v4.7a.31.31 0 01-.32.31H37.54a.31.31 0 01-.32-.31V7.4H35a.33.33 0 01-.27-.52L39.16.5l4.4 6.33a.33.33 0 01-.27.52z"></path></svg>